<svg width="41" height="40" viewBox="0 0 41 40" fill="none" xmlns="http://www.w3.org/2000/svg">
<path d="M40.3813 20C40.3813 8.9543 31.427 0 20.3813 0C9.33565 0 0.381348 8.9543 0.381348 20C0.381348 29.9826 7.69506 38.2566 17.2563 39.7569V25.7813H12.1782V20H17.2563V15.5938C17.2563 10.5812 20.2422 7.8125 24.8106 7.8125C26.9988 7.8125 29.2876 8.20313 29.2876 8.20313V13.125H26.7656C24.2812 13.125 23.5063 14.6667 23.5063 16.2483V20H29.0532L28.1665 25.7813H23.5063V39.7569C33.0676 38.2566 40.3813 29.9826 40.3813 20Z" fill="#1877F2"/>
<path d="M28.1665 25.7812L29.0532 20H23.5063V16.2483C23.5063 14.6667 24.2812 13.125 26.7656 13.125H29.2876V8.20312C29.2876 8.20312 26.9988 7.8125 24.8106 7.8125C20.2422 7.8125 17.2563 10.5812 17.2563 15.5938V20H12.1782V25.7812H17.2563V39.7569C19.3271 40.081 21.4356 40.081 23.5063 39.7569V25.7812H28.1665Z" fill="#F5F5F5"/>
</svg>
