<svg width="1920" height="260" viewBox="0 0 1920 260" fill="none" xmlns="http://www.w3.org/2000/svg">
<g clip-path="url(#clip0_681_7244)">
<path d="M0 7C0 7 217.704 54.5006 473 30.5885C614.684 17.3178 767.946 7 902 7C1240 7 1228 73 1494.5 73C1635.64 73 1920 110 1920 110V260H0V7Z" fill="#F99C11"/>
<path d="M302 126C452.594 158.208 653 249 739.5 270L-463 391V126C-461.5 126 -206.5 89.4999 -68.5 89.5C179.368 89.5002 215.5 107.5 302 126Z" fill="#FAA82E"/>
<path d="M1261.5 124C1117.76 179.259 997.5 290.5 911 311.5L2085 312.5V47.5C2083.5 47.5 1960.5 18.9999 1822.5 19C1574.63 19.0002 1460.5 47.5 1261.5 124Z" fill="#FAA82E"/>
<path d="M1435 154C1558.31 246.25 1834 265.5 1929.5 271H155C156.5 271 279.5 193 544 204C780.296 213.827 806.5 109.5 953.5 65.9999C1066.5 32.5613 1238.5 7.00008 1435 154Z" fill="white" fill-opacity="0.1"/>
</g>
<defs>
<clipPath id="clip0_681_7244">
<rect width="1920" height="260" fill="white"/>
</clipPath>
</defs>
</svg>
