<svg fill="currentColor" version="1.0" xmlns="http://www.w3.org/2000/svg" viewBox="0 0 190 44" preserveAspectRatio="xMidYMid meet">
<g transform="translate(0.000000,44.000000) scale(0.100000,-0.100000)">
<path d="M790 431 c-20 -4 -56 -17 -82 -29 -107 -52 -147 -197 -84 -307 44
-79 90 -95 281 -95 239 0 290 30 319 189 11 62 14 66 41 71 43 7 47 40 5 40
-34 0 -80 -38 -80 -65 0 -13 -16 -15 -122 -13 l-123 3 -3 98 c-3 94 -4 98 -28
107 -28 11 -71 11 -124 1z m118 -96 c2 -66 2 -66 -52 10 -13 19 -21 24 -29 16
-8 -8 -5 -22 11 -50 12 -21 22 -41 22 -44 0 -3 -21 6 -46 20 -35 20 -48 23
-57 14 -13 -13 -8 -18 55 -56 l33 -20 -104 -3 c-57 -1 -106 -1 -108 2 -12 11
20 85 49 114 44 41 100 62 168 59 l55 -2 3 -60z m274 -175 c-6 -44 -41 -87
-82 -104 -31 -12 -77 -16 -196 -16 -171 0 -208 9 -238 55 -21 32 -37 81 -28
89 3 4 127 5 276 4 l271 -3 -3 -25z"/>
<path d="M992 418 c-26 -26 -14 -70 33 -115 25 -24 49 -43 54 -43 4 0 29 18
55 41 37 33 46 47 46 73 0 39 -15 56 -50 56 -14 0 -31 -5 -38 -12 -9 -9 -15
-9 -24 0 -7 7 -24 12 -38 12 -14 0 -31 -5 -38 -12z m58 -33 c16 -20 39 -19 62
2 14 13 21 14 30 5 9 -9 7 -18 -8 -39 -42 -55 -66 -56 -107 -1 -27 37 -6 67
23 33z"/>
<path d="M6 378 c-8 -30 -8 -312 0 -332 8 -20 33 -21 40 -2 4 11 12 11 46 -1
128 -44 221 123 117 211 -24 20 -42 26 -79 26 -27 0 -52 -4 -55 -10 -15 -24
-24 -5 -27 57 -2 53 -7 68 -19 71 -10 2 -19 -6 -23 -20z m179 -163 c51 -50 18
-135 -52 -135 -44 0 -83 37 -83 80 0 41 39 80 80 80 19 0 40 -9 55 -25z"/>
<path d="M100 165 c0 -21 34 -37 48 -23 21 21 13 38 -18 38 -20 0 -30 -5 -30
-15z"/>
<path d="M1386 384 c-3 -9 -6 -90 -6 -180 0 -143 2 -165 16 -171 10 -4 20 0
25 10 9 14 13 14 46 0 75 -31 163 27 163 107 0 56 -15 87 -52 110 -36 22 -98
26 -129 10 -17 -10 -19 -7 -19 28 0 58 -11 102 -25 102 -7 0 -16 -7 -19 -16z
m179 -169 c73 -73 -37 -184 -112 -113 -50 47 -12 138 57 138 19 0 40 -9 55
-25z"/>
<path d="M1482 163 c2 -12 12 -18 28 -18 16 0 26 6 28 18 3 13 -3 17 -28 17
-25 0 -31 -4 -28 -17z"/>
<path d="M297 273 c-4 -3 -7 -38 -7 -77 0 -125 47 -179 139 -158 26 6 50 7 56
2 6 -5 17 -5 25 0 12 8 13 13 3 30 -7 11 -13 42 -13 68 0 78 -11 142 -25 142
-20 0 -25 -24 -25 -111 0 -77 -1 -80 -26 -90 -61 -23 -94 22 -94 131 0 52 -3
70 -13 70 -8 0 -17 -3 -20 -7z"/>
<path d="M1667 233 c-7 -58 4 -123 27 -158 25 -38 62 -49 115 -36 28 8 48 8
54 2 12 -12 37 -3 37 14 0 7 -7 18 -15 25 -11 9 -15 35 -15 107 0 85 -2 94
-17 91 -15 -3 -19 -18 -23 -97 -5 -94 -5 -95 -34 -102 -61 -17 -86 22 -86 132
0 61 -2 69 -19 69 -15 0 -20 -10 -24 -47z"/>
</g>
</svg>
