<svg width="24" height="18" viewBox="0 0 24 18" fill="none" xmlns="http://www.w3.org/2000/svg">
<path d="M17.9316 13.0645H10.8587C9.53886 13.0645 8.37407 12.2019 7.98912 10.9395L5.75806 3.62272H18.9811C20.9963 3.62272 22.4384 5.5701 21.8507 7.49772L20.8012 10.9395C20.4162 12.2019 19.2514 13.0645 17.9316 13.0645Z" fill="currentColor"/>
<path d="M0 1H2.70158C3.9609 1 5.08617 1.78649 5.5189 2.96912L5.75806 3.62272M5.75806 3.62272L7.98912 10.9395C8.37407 12.2019 9.53886 13.0645 10.8587 13.0645H17.9316C19.2514 13.0645 20.4162 12.2019 20.8012 10.9395L21.8507 7.49772C22.4384 5.5701 20.9963 3.62272 18.9811 3.62272H5.75806Z" stroke="currentColor" stroke-width="2"/>
<circle cx="10.9679" cy="16.3548" r="1.64516" fill="currentColor"/>
<circle cx="18.0968" cy="16.3548" r="1.64516" fill="currentColor"/>
</svg>
