<svg viewBox="0 0 40 40" fill="none" xmlns="http://www.w3.org/2000/svg">
<path d="M39.3602 20.3709C39.3602 18.7458 39.2283 17.5599 38.943 16.3301H20.3857V23.665H31.2784C31.0589 25.4879 29.873 28.233 27.2376 30.0777L27.2006 30.3232L33.0681 34.8687L33.4746 34.9092C37.2079 31.4613 39.3602 26.3882 39.3602 20.3709Z" fill="#4285F4"/>
<path d="M20.3863 39.6973C25.7228 39.6973 30.2029 37.9403 33.4752 34.9097L27.2382 30.0782C25.5692 31.2421 23.3291 32.0547 20.3863 32.0547C15.1596 32.0547 10.7235 28.6069 9.14212 23.8413L8.91033 23.861L2.80928 28.5827L2.72949 28.8045C5.97971 35.261 12.6559 39.6973 20.3863 39.6973Z" fill="#34A853"/>
<path d="M9.14195 23.841C8.7247 22.6112 8.48322 21.2934 8.48322 19.9319C8.48322 18.5702 8.7247 17.2526 9.12 16.0228L9.10895 15.7609L2.93143 10.9634L2.72932 11.0595C1.38974 13.7388 0.621094 16.7476 0.621094 19.9319C0.621094 23.1163 1.38974 26.1249 2.72932 28.8042L9.14195 23.841Z" fill="#FBBC05"/>
<path d="M20.3863 7.80943C24.0977 7.80943 26.6012 9.41259 28.0288 10.7523L33.6069 5.30591C30.1811 2.12155 25.7228 0.166992 20.3863 0.166992C12.6559 0.166992 5.97971 4.60312 2.72949 11.0597L9.12017 16.023C10.7235 11.2574 15.1596 7.80943 20.3863 7.80943Z" fill="#EB4335"/>
</svg>
