<svg width="31" height="22" viewBox="0 0 31 22" fill="none" xmlns="http://www.w3.org/2000/svg">
<path d="M4.26961 15.0881H2.52521C1.80504 15.0881 1.33715 15.8217 1.73605 16.4213C2.98669 18.3012 5.15851 20.2057 7.53922 20.2057C9.91992 20.2057 12.0917 18.3012 13.3424 16.4213C13.7413 15.8217 13.2734 15.0881 12.5532 15.0881H10.8088M4.26961 15.0881H7.53922H10.8088M4.26961 15.0881L6.60964 9.18716C6.94347 8.34532 8.13496 8.34532 8.46879 9.18716L10.8088 15.0881" stroke="currentColor" stroke-width="2"/>
<path d="M20.1915 15.0881H18.4471C17.7269 15.0881 17.259 15.8217 17.6579 16.4213C18.9086 18.3012 21.0804 20.2057 23.4611 20.2057C25.8418 20.2057 28.0136 18.3012 29.2643 16.4213C29.6632 15.8217 29.1953 15.0881 28.4751 15.0881H26.7307M20.1915 15.0881H23.4611H26.7307M20.1915 15.0881L22.5315 9.18716C22.8653 8.34532 24.0568 8.34532 24.3907 9.18716L26.7307 15.0881" stroke="currentColor" stroke-width="2"/>
<circle cx="15.7838" cy="4.20602" r="2.41176" stroke="currentColor" stroke-width="2"/>
<path d="M6.68652 5.68971L12.9414 4.55246" stroke="currentColor" stroke-width="2" stroke-linecap="round"/>
<path d="M18.6279 4.55246L24.3142 5.68971" stroke="currentColor" stroke-width="2" stroke-linecap="round"/>
</svg>
