<svg width="12" height="20" viewBox="0 0 12 20" fill="none" xmlns="http://www.w3.org/2000/svg" >
<path d="M7.5 19.5H4.5C4.22386 19.5 4 19.2761 4 19V12C4 11.7239 3.77614 11.5 3.5 11.5H1.5C1.22386 11.5 1 11.2761 1 11V8.5C1 8.22386 1.22386 8 1.5 8H3.5C3.77614 8 4 7.77668 4 7.50054V5C4 3 5.5 0.5 7.5 0.5H11C11.2761 0.5 11.5 0.723858 11.5 1V3.5C11.5 3.77614 11.2763 4 11.0002 4H9C8.2 4 8 4.66667 8 5V7.5C8 7.77614 8.22386 8 8.5 8H10.9235C11.2278 8 11.4615 8.26949 11.4185 8.57071L11.0613 11.0707C11.0261 11.317 10.8152 11.5 10.5664 11.5H8.5C8.22386 11.5 8 11.7239 8 12V19C8 19.2761 7.77614 19.5 7.5 19.5Z" stroke="currentColor"/>
</svg>
