<svg width="25" height="18" viewBox="0 0 25 18" fill="none" xmlns="http://www.w3.org/2000/svg">
<path fill-rule="evenodd" clip-rule="evenodd" d="M23.0203 2.81033C22.3962 1.734 21.7201 1.53622 20.3417 1.46109C18.9649 1.37063 15.5013 1.33383 12.5023 1.33383C9.49717 1.33383 6.03206 1.37063 4.65676 1.46109C3.28145 1.53775 2.60376 1.734 1.9736 2.81033C1.33118 3.88666 1 5.73727 1 8.99692V9.00919C1 12.255 1.33118 14.1194 1.9736 15.182C2.60223 16.2568 3.27991 16.453 4.65676 16.5435C6.03206 16.6201 9.49563 16.6661 12.5023 16.6661C15.5013 16.6661 18.9649 16.6201 20.3432 16.5435C21.7216 16.453 22.3978 16.2568 23.0218 15.182C23.6719 14.1179 24 12.2535 24 9.00919V8.99692C23.9985 5.73727 23.6719 3.88666 23.0203 2.81033V2.81033Z" stroke="currentColor" stroke-miterlimit="10" stroke-linecap="round" stroke-linejoin="round"/>
<path fill-rule="evenodd" clip-rule="evenodd" d="M10.1992 12.8331V5.1669L16.3321 8.99998L10.1992 12.8331Z" stroke="currentColor" stroke-miterlimit="10" stroke-linecap="round" stroke-linejoin="round"/>
</svg>
