<svg width="27" height="22" viewBox="0 0 27 22" fill="none" xmlns="http://www.w3.org/2000/svg">
<path d="M21.4034 15.6518H12.3466C11.0268 15.6518 9.86198 14.7892 9.47704 13.5268L6.75 4.58345H22.9489C24.9641 4.58345 26.4062 6.53083 25.8184 8.45845L24.273 13.5268C23.888 14.7892 22.7232 15.6518 21.4034 15.6518Z" fill="currentColor"/>
<path d="M0 1.50891H3.5282C4.78751 1.50891 5.91278 2.2954 6.34552 3.47803L6.75 4.58345M6.75 4.58345L9.47704 13.5268C9.86198 14.7892 11.0268 15.6518 12.3466 15.6518H21.4034C22.7232 15.6518 23.888 14.7892 24.273 13.5268L25.8184 8.45845C26.4062 6.53083 24.9641 4.58345 22.9489 4.58345H6.75Z" stroke="currentColor" stroke-width="2"/>
<circle cx="12.8573" cy="19.509" r="1.92857" fill="currentColor"/>
<circle cx="21.2147" cy="19.509" r="1.92857" fill="currentColor"/>
</svg>
