<svg width="25" height="25" viewBox="0 0 25 25" fill="none" xmlns="http://www.w3.org/2000/svg">
<path d="M23 15.1744C23 19.0802 19.9047 23.685 12.5 24C5.09527 23.685 1.91527 19.0802 2.00171 15.1744C2.08816 11.2686 5.84914 10.1346 5.84914 10.1346C5.45171 7.08974 6.22565 1 12.5008 1C18.776 1 19.55 7.08974 19.1526 10.1346C19.1526 10.1346 23 11.2686 23 15.1744Z" fill="url(#paint0_linear_180_406)"/>
<path d="M8.86121 11.0796C8.21279 9.12665 8.03292 5.22082 12.5008 5.22082C16.9688 5.22082 16.747 9.12665 16.0777 11.0796M8.86121 11.0796H16.0777M8.86121 11.0796C8.06636 13.3475 6.8908 18.1227 8.54745 19.0802C9.02341 19.3553 9.60545 19.5639 10.2418 19.7082M16.0777 11.0796C16.8307 13.3685 17.9728 18.1731 16.517 19.0802C16.054 19.3687 15.4449 19.5878 14.7599 19.7346M10.2418 19.7082C10.4928 19.0802 11.1203 17.6943 12.5008 17.6943C13.8814 17.6943 14.6971 19.129 14.7599 19.7346M10.2418 19.7082C11.6697 20.0319 13.3709 20.0321 14.7599 19.7346M12.5 24C19.9047 23.685 23 19.0802 23 15.1744C23 11.2686 19.1526 10.1346 19.1526 10.1346C19.55 7.08974 18.776 1 12.5008 1C6.22565 1 5.45171 7.08974 5.84914 10.1346C5.84914 10.1346 2.08816 11.2686 2.00171 15.1744C1.91527 19.0802 5.09527 23.685 12.5 24Z" stroke="#7450DA" stroke-width="2"/>
<defs>
<linearGradient id="paint0_linear_180_406" x1="12.5" y1="1" x2="12.5" y2="24" gradientUnits="userSpaceOnUse">
<stop stop-color="#D6C9F0"/>
<stop offset="1" stop-color="#EFECF9"/>
</linearGradient>
</defs>
</svg>
