<svg width="25" height="26" viewBox="0 0 25 26" fill="none" xmlns="http://www.w3.org/2000/svg">
<path d="M15.5078 7.98683L21.8552 9.16985C22.5123 9.48352 23.8507 10.4281 23.9469 11.6972C24.0431 12.9662 23.987 16.0797 23.9469 17.4778H21.3284C21.3284 18.7953 20.2481 20.5 18.2028 20.5C16.1575 20.5 15.0772 18.9566 15.0772 17.4778H10C10 18.9297 8.98015 20.5 7.0567 20.5C5.13326 20.5 3.90706 19.0104 3.90706 17.4778H1V11.1595C1 10.0696 1.5 8.28258 2.57261 8.28258C4.39988 8.28258 4.78457 8.2557 5.31352 8.79343C5.57005 9.05422 6.09802 9.58694 6.80419 10.0696L6.44354 6.10476C6.43553 5.75523 6.57818 5.04542 7.21292 5.0024C7.84766 4.95939 8.13457 5.50429 8.19869 5.78212L9.5451 11.0519C11.5647 11.0788 12.6226 11.0519 13.1516 11.0519C13.8947 11.0519 14.4445 10.6196 15.0269 9.73185C15.328 9.27294 15.5324 8.69233 15.5078 7.98683Z" fill="url(#paint0_linear_180_410)"/>
<path d="M21.3284 17.4778H23.9469C23.987 16.0797 24.0431 12.9662 23.9469 11.6972C23.8507 10.4281 22.5123 9.48352 21.8552 9.16985L15.5078 7.98683C15.5324 8.69233 15.328 9.27294 15.0269 9.73185M21.3284 17.4778C21.3284 16.026 20.2224 14.5 18.2028 14.5C16.1831 14.5 15.0772 16.0528 15.0772 17.4778M21.3284 17.4778C21.3284 18.7953 20.2481 20.5 18.2028 20.5C16.1575 20.5 15.0772 18.9566 15.0772 17.4778M15.0772 17.4778H10M10 17.4778C10 16.3599 9.1134 14.5 7.0567 14.5C5 14.5 3.90706 15.9453 3.90706 17.4778M10 17.4778C10 18.9297 8.98015 20.5 7.0567 20.5C5.13326 20.5 3.90706 19.0104 3.90706 17.4778M3.90706 17.4778H1V11.1595C1 10.0696 1.5 8.28258 2.57261 8.28258C4.39988 8.28258 4.78457 8.2557 5.31352 8.79343C5.57005 9.05422 6.09802 9.58694 6.80419 10.0696M9.5451 11.0519C11.5647 11.0788 12.6226 11.0519 13.1516 11.0519C13.8947 11.0519 14.4445 10.6196 15.0269 9.73185M9.5451 11.0519C8.50496 11.0381 7.5541 10.5821 6.80419 10.0696M9.5451 11.0519L8.19869 5.78212C8.13457 5.50429 7.84766 4.95939 7.21292 5.0024C6.57818 5.04542 6.43553 5.75523 6.44354 6.10476L6.80419 10.0696M15.0269 9.73185L12.6316 7.90909M12.6316 7.90909L13.2632 7.18182M12.6316 7.90909L12 8.63636" stroke="#29DD45" stroke-width="2" stroke-linecap="round"/>
<defs>
<linearGradient id="paint0_linear_180_410" x1="12.5" y1="5" x2="12.5" y2="21" gradientUnits="userSpaceOnUse">
<stop stop-color="#CAF0C9"/>
<stop offset="1" stop-color="#ECF9EC"/>
</linearGradient>
</defs>
</svg>
