<svg width="25" height="25" viewBox="0 0 25 25" fill="none" xmlns="http://www.w3.org/2000/svg">
<path d="M11.3366 4.36405C12.007 5.02949 11.7835 5.91674 11.7835 13.2366H20.6479C20.2149 20.1128 15.7315 21 13.2733 21H7.9845C3.51506 21 1 16.7856 1 13.2366C1 9.68758 1.71373 8.23592 2.74532 7.02581C5.65046 3.61795 10.6662 3.69861 11.3366 4.36405Z" fill="url(#paint0_linear_180_380)"/>
<path d="M11.7835 13.2366C11.7835 5.91674 12.007 5.02949 11.3366 4.36405C10.6662 3.69861 5.65046 3.61795 2.74532 7.02581C1.71373 8.23592 1 9.68758 1 13.2366M11.7835 13.2366H1M11.7835 13.2366H20.6479M11.7835 13.2366L7.9845 7.02581M11.7835 13.2366L5.07936 9.46574M1 13.2366C1 16.7856 3.51506 21 7.9845 21H13.2733C15.7315 21 20.2149 20.1128 20.6479 13.2366M20.6479 13.2366C20.8155 10.5748 21.3183 9.90938 24 9.90938" stroke="#FFB524" stroke-width="2" stroke-linecap="round" stroke-linejoin="round"/>
<defs>
<linearGradient id="paint0_linear_180_380" x1="12.5" y1="4" x2="12.5" y2="21" gradientUnits="userSpaceOnUse">
<stop stop-color="#FFE4AF"/>
<stop offset="1" stop-color="#FFF6E4"/>
</linearGradient>
</defs>
</svg>
