<svg width="25" height="26" viewBox="0 0 25 26" fill="none" xmlns="http://www.w3.org/2000/svg">
<g clip-path="url(#clip0_180_389)">
<path d="M4.46098 15.9238L4.46097 4.78248C4.46097 4.78248 10.0955 1.59924 12.5103 1.59924C14.9251 1.59924 20.5596 4.78248 20.5596 4.78248L20.5596 15.9238L12.5103 17.5155L4.46098 15.9238Z" fill="url(#paint0_linear_180_389)"/>
<path d="M4 25V23.6112M4 23.6112C5.77083 22.3381 10.0208 21.5279 12.8542 21.5279C15.4767 21.5279 18.9084 22.222 20.6216 23.3349C20.8711 23.497 21 23.7833 21 24.0809V25V14.9514M4 23.6112V14.9514M21 14.9514C21 14.9514 19.9375 17.0346 12.8542 17.0346M21 14.9514V10.4299M12.8542 17.0346C5.76517 17.0346 4 14.9514 4 14.9514M12.8542 17.0346V11.1243M4 14.9514V10.4299M4 10.4299V5.04108C4 4.72298 4.14875 4.42124 4.41999 4.25505C6.06763 3.24557 9.49044 2 12.8542 2C16.2185 2 19.2479 3.24601 20.6471 4.25559C20.8798 4.42348 21 4.69949 21 4.98641V10.4299M4 10.4299C4 10.4299 10.8 10.4299 12.8542 11.1243M12.8542 11.1243C14.9572 10.4299 21 10.4299 21 10.4299" stroke="#32B6FF" stroke-width="2" stroke-linecap="round"/>
</g>
<defs>
<linearGradient id="paint0_linear_180_389" x1="8.90415" y1="5.85156" x2="10.6498" y2="17.7885" gradientUnits="userSpaceOnUse">
<stop stop-color="#C9E9F0"/>
<stop offset="1" stop-color="#ECF6F9"/>
</linearGradient>
<clipPath id="clip0_180_389">
<rect width="25" height="25" fill="white" transform="translate(0 0.5)"/>
</clipPath>
</defs>
</svg>
