<svg width="25" height="25" viewBox="0 0 25 25" fill="none" xmlns="http://www.w3.org/2000/svg">
<g clip-path="url(#clip0_180_394)">
<path d="M7.99001 23.3378L1.70813 18.8043C0.812456 18.1578 0.61038 16.9077 1.25678 16.0121L3.2435 13.2592L5.4986 10.1345L7.7537 7.00973L10.2343 3.57252C10.2343 3.57252 14.346 1.36614 17.4522 3.60779C20.5583 5.84945 19.7597 10.4469 19.7597 10.4469L10.7822 22.8865C10.1358 23.7822 8.88569 23.9842 7.99001 23.3378Z" fill="url(#paint0_linear_180_394)"/>
<path d="M19.7597 10.4469L10.7822 22.8865C10.1358 23.7822 8.88569 23.9842 7.99001 23.3378L1.70813 18.8042C0.812456 18.1578 0.610379 16.9077 1.25678 16.0121L3.2435 13.2592M19.7597 10.4469L14.997 7.00972L10.2343 3.57252M19.7597 10.4469C19.7597 10.4469 20.5583 5.84945 17.4522 3.60779C14.346 1.36614 10.2343 3.57252 10.2343 3.57252M10.2343 3.57252L7.7537 7.00973M7.7537 7.00973L10.9288 9.3012M7.7537 7.00973L5.4986 10.1345M5.4986 10.1345L8.67374 12.4259M5.4986 10.1345L3.2435 13.2592M3.2435 13.2592L6.41864 15.5507" stroke="#505EDA" stroke-width="2"/>
<circle cx="18.3686" cy="2.33775" r="1" transform="rotate(35.8177 18.3686 2.33775)" fill="url(#paint1_linear_180_394)" stroke="#505EDA" stroke-width="1.91565"/>
</g>
<defs>
<linearGradient id="paint0_linear_180_394" x1="17.4522" y1="3.60779" x2="4.84907" y2="21.071" gradientUnits="userSpaceOnUse">
<stop stop-color="#ACB5FF"/>
<stop offset="1" stop-color="#E9E9FF"/>
</linearGradient>
<linearGradient id="paint1_linear_180_394" x1="18.3686" y1="0.37992" x2="18.3686" y2="4.29557" gradientUnits="userSpaceOnUse">
<stop stop-color="#D6C9F0"/>
<stop offset="0.0001" stop-color="#D1C9F0"/>
<stop offset="1" stop-color="#EFECF9"/>
</linearGradient>
<clipPath id="clip0_180_394">
<rect width="25" height="25" fill="white"/>
</clipPath>
</defs>
</svg>
