<svg width="25" height="25" viewBox="0 0 25 25" fill="none" xmlns="http://www.w3.org/2000/svg">
<path d="M2 19.5359L2 13.6505C2 9.79687 7.68523 10.4136 9.17896 8.64798C9.82624 7.88289 11.3562 5.67712 12.18 4.79432C13.0038 3.91151 15.5341 3.57242 19.0059 4.79432C22.7719 6.11977 22.8307 7.64747 22.8307 8.64798C23.0465 10.7667 23.0661 13.9166 22.8307 14.9171C22.3011 15.8588 18.7705 17.7114 17.9467 18.1234C16.2402 18.9768 15.5929 21.6853 14.5338 22.7447C13.4746 23.804 10.4735 24.3337 7.06058 23.7733C3.83784 23.2442 2.37268 20.5953 2 19.5359Z" fill="url(#paint0_linear_180_400)"/>
<path d="M2 13.6505L2 19.5359C2.37268 20.5953 3.83784 23.2442 7.06058 23.7733C10.4735 24.3337 13.4746 23.804 14.5338 22.7447C15.5929 21.6853 16.2402 18.9768 17.9467 18.1234C18.7705 17.7114 22.3011 15.8588 22.8307 14.9171C23.0661 13.9166 23.0465 10.7667 22.8307 8.64798M2 13.6505C2 9.79687 7.68523 10.4136 9.17896 8.64798C9.82624 7.88289 11.3562 5.67712 12.18 4.79432C13.0038 3.91151 15.5341 3.57242 19.0059 4.79432C22.7719 6.11977 22.8307 7.64747 22.8307 8.64798M2 13.6505C2.33345 14.8865 3.87124 17.5113 7.3548 18.1234C11.1797 18.7955 12.5331 17.9775 13.4746 17.389C14.4161 16.8004 15.7106 14.7099 17.0052 13.9448C18.2998 13.1797 22.8307 11.8849 22.8307 8.64798" stroke="#DA50AB" stroke-width="2"/>
<circle cx="4.5" cy="8.5" r="0.5" fill="#DA50AB"/>
<circle cx="9" cy="3" r="1" fill="url(#paint1_linear_180_400)" stroke="#DA50AB" stroke-width="2"/>
<defs>
<linearGradient id="paint0_linear_180_400" x1="12.5" y1="4" x2="12.5" y2="24" gradientUnits="userSpaceOnUse">
<stop stop-color="#EEC9F0"/>
<stop offset="1" stop-color="#F8ECF9"/>
</linearGradient>
<linearGradient id="paint1_linear_180_400" x1="9" y1="1" x2="9" y2="5" gradientUnits="userSpaceOnUse">
<stop stop-color="#EEC9F0"/>
<stop offset="1" stop-color="#F8ECF9"/>
</linearGradient>
</defs>
</svg>
