<svg width="25" height="25" viewBox="0 0 25 25" fill="none" xmlns="http://www.w3.org/2000/svg">
<rect x="1" y="16.7059" width="16" height="3.29412" rx="1.64706" fill="url(#paint0_linear_180_414)" stroke="#DA7950" stroke-width="2"/>
<rect x="3.11719" y="12.4706" width="11.7647" height="3.29412" rx="1.64706" fill="url(#paint1_linear_180_414)" stroke="#DA7950" stroke-width="2"/>
<rect x="5.23535" y="8.23529" width="7.52941" height="3.29412" rx="1.64706" fill="url(#paint2_linear_180_414)" stroke="#DA7950" stroke-width="2"/>
<rect x="7.35254" y="4" width="3.29412" height="3.29412" rx="1.64706" fill="url(#paint3_linear_180_414)" stroke="#DA7950" stroke-width="2"/>
<rect x="13" y="9" width="11" height="11" fill="url(#paint4_linear_180_414)" stroke="#DA7950" stroke-width="2"/>
<path d="M16 18L16.6041 16.7918M21 18L20.3959 16.7918M20.3959 16.7918L18.5 13L16.6041 16.7918M20.3959 16.7918H16.6041" stroke="#DA7950" stroke-width="2"/>
<defs>
<linearGradient id="paint0_linear_180_414" x1="9" y1="15.7059" x2="9" y2="21" gradientUnits="userSpaceOnUse">
<stop stop-color="#F0D7C9"/>
<stop offset="1" stop-color="#F9F1EC"/>
</linearGradient>
<linearGradient id="paint1_linear_180_414" x1="8.99954" y1="11.4706" x2="8.99954" y2="16.7647" gradientUnits="userSpaceOnUse">
<stop stop-color="#F0D7C9"/>
<stop offset="1" stop-color="#F9F1EC"/>
</linearGradient>
<linearGradient id="paint2_linear_180_414" x1="9.00006" y1="7.23529" x2="9.00006" y2="12.5294" gradientUnits="userSpaceOnUse">
<stop stop-color="#F0D7C9"/>
<stop offset="1" stop-color="#F9F1EC"/>
</linearGradient>
<linearGradient id="paint3_linear_180_414" x1="8.9996" y1="3" x2="8.9996" y2="8.29412" gradientUnits="userSpaceOnUse">
<stop stop-color="#F0D7C9"/>
<stop offset="1" stop-color="#F9F1EC"/>
</linearGradient>
<linearGradient id="paint4_linear_180_414" x1="18.5" y1="8" x2="18.5" y2="21" gradientUnits="userSpaceOnUse">
<stop stop-color="#F0D7C9"/>
<stop offset="1" stop-color="#F9F1EC"/>
</linearGradient>
</defs>
</svg>
